# xmcd
#
# Track frame offsets: 
#        150
#        15862
#        30380
#        46325
#        65500
#        95892
#        119580
#        136805
#        155267
#        173855
#        197675
#        218392
#        231667
#
# Disc length: 3373 seconds
#
# Revision: 3
# Processed by: cddbd v1.5.2PL0 Copyright (c) Steve Scherf et al.
# Submitted via: ExactAudioCopy v1.0b3
#
DISCID=aa0d2b0d
DTITLE=Александр Кутиков - Танцы на крыше
DYEAR=1996
DGENRE=Rock
TTITLE0=Портрет
TTITLE1=Принц на час
TTITLE2=Держи меня
TTITLE3=Троянский конь
TTITLE4=Любовники Луны
TTITLE5=Эпитафия
TTITLE6=Чужие глаза
TTITLE7=Островитянка
TTITLE8=Бог с тобой
TTITLE9=Танцы на крыше
TTITLE10=Кто со мной
TTITLE11=Пьесы и роли
TTITLE12=Дай помечтать
EXTD=YEAR: 1996
EXTT0=
EXTT1=
EXTT2=
EXTT3=
EXTT4=
EXTT5=
EXTT6=
EXTT7=
EXTT8=
EXTT9=
EXTT10=
EXTT11=
EXTT12=
PLAYORDER=
